# xmcd CD database file
#
# Track frame offsets:
#	182
#	35532
#	56415
#	82527
#	106787
#	139985
#	163002
#	199232
#
# Disc length: 3004 seconds
#
# Revision: 0
# Processed by: cddbd v1.5.1PL0 Copyright (c) Steve Scherf et al.
# Submitted via: CDex 1.51
#
DISCID=5f0bba08
DTITLE=Elene DEE - Ido it for your love, Bill
DYEAR=1989
DGENRE=Jazz
TTITLE0=Dis bonhomme (the peacocks)
TTITLE1=Les evansiens (Twelve, tone, tune, two)
TTITLE2=Blue ou green (Blue in green)
TTITLE3=Billie (elsa)
TTITLE4=Dialogue "I do it for your love, Bill"
TTITLE5=Very early
TTITLE6=Bill (quiet now)
TTITLE7=Cauchemar d'égout (34 skidoo)
EXTD=YEAR: 1989
EXTT0=
EXTT1=
EXTT2=
EXTT3=
EXTT4=
EXTT5=
EXTT6=
EXTT7=
PLAYORDER=
